<svg width="43" height="57" viewBox="0 0 43 57" fill="none" xmlns="http://www.w3.org/2000/svg">
<g filter="url(#filter0_d_26_137)">
<path d="M22.6083 0.503728C22.4714 0.345751 22.3015 0.218929 22.1103 0.131976C21.9191 0.0450232 21.7111 0 21.5006 0C21.2901 0 21.0821 0.0450232 20.8909 0.131976C20.6997 0.218929 20.5298 0.345751 20.3929 0.503728C16.5453 4.95014 4 20.3223 4 31.7091C4 42.3202 10.7618 49 21.5 49C32.2382 49 39 42.3202 39 31.7091C39 20.3223 26.4547 4.95014 22.6083 0.503728ZM23.4444 42.7561C23.2109 42.7566 22.9806 42.7016 22.773 42.5959C22.5654 42.4901 22.3865 42.3366 22.2514 42.1483C22.1164 41.9601 22.0291 41.7425 21.9969 41.5139C21.9646 41.2853 21.9885 41.0524 22.0663 40.8348C22.1658 40.5509 22.3533 40.3053 22.6023 40.1328C22.8512 39.9603 23.1489 39.8698 23.453 39.8742C25.3833 39.8701 27.2334 39.1106 28.5983 37.762C29.9633 36.4133 30.7319 34.5854 30.7361 32.6781C30.7317 32.3777 30.8232 32.0836 30.9978 31.8376C31.1724 31.5916 31.421 31.4063 31.7083 31.308C31.9286 31.2311 32.1642 31.2075 32.3956 31.2394C32.6269 31.2712 32.8472 31.3575 33.0377 31.4909C33.2283 31.6244 33.3836 31.8011 33.4907 32.0062C33.5977 32.2114 33.6533 32.4389 33.6528 32.6697C33.6499 35.3439 32.5734 37.9077 30.6596 39.7987C28.7458 41.6896 26.151 42.7532 23.4444 42.7561Z" fill="#6272C5"/>
</g>
<defs>
<filter id="filter0_d_26_137" x="0" y="0" width="43" height="57" filterUnits="userSpaceOnUse" color-interpolation-filters="sRGB">
<feFlood flood-opacity="0" result="BackgroundImageFix"/>
<feColorMatrix in="SourceAlpha" type="matrix" values="0 0 0 0 0 0 0 0 0 0 0 0 0 0 0 0 0 0 127 0" result="hardAlpha"/>
<feOffset dy="4"/>
<feGaussianBlur stdDeviation="2"/>
<feComposite in2="hardAlpha" operator="out"/>
<feColorMatrix type="matrix" values="0 0 0 0 0 0 0 0 0 0 0 0 0 0 0 0 0 0 0.25 0"/>
<feBlend mode="normal" in2="BackgroundImageFix" result="effect1_dropShadow_26_137"/>
<feBlend mode="normal" in="SourceGraphic" in2="effect1_dropShadow_26_137" result="shape"/>
</filter>
</defs>
</svg>
