<svg width="47" height="57" viewBox="0 0 47 57" fill="none" xmlns="http://www.w3.org/2000/svg">
<g filter="url(#filter0_d_26_136)">
<path d="M30.0602 0.51756L4.79488 23.2505C3.23409 24.6713 4.11203 27.2925 6.20935 27.4885L25.9387 29.3992L14.1109 45.959C13.5743 46.7184 13.6475 47.7718 14.306 48.4332C15.0376 49.1681 16.1838 49.1926 16.9398 48.4822L42.2051 25.7492C43.7659 24.3284 42.888 21.7072 40.7907 21.5113L21.0613 19.6005L32.8891 3.04072C33.4257 2.28132 33.3525 1.22797 32.694 0.566554C32.3492 0.212857 31.8798 0.00948938 31.3871 0.000323738C30.8944 -0.0088419 30.4178 0.17693 30.0602 0.51756Z" fill="#B9BC48"/>
</g>
<defs>
<filter id="filter0_d_26_136" x="0" y="0" width="47" height="57" filterUnits="userSpaceOnUse" color-interpolation-filters="sRGB">
<feFlood flood-opacity="0" result="BackgroundImageFix"/>
<feColorMatrix in="SourceAlpha" type="matrix" values="0 0 0 0 0 0 0 0 0 0 0 0 0 0 0 0 0 0 127 0" result="hardAlpha"/>
<feOffset dy="4"/>
<feGaussianBlur stdDeviation="2"/>
<feComposite in2="hardAlpha" operator="out"/>
<feColorMatrix type="matrix" values="0 0 0 0 0 0 0 0 0 0 0 0 0 0 0 0 0 0 0.25 0"/>
<feBlend mode="normal" in2="BackgroundImageFix" result="effect1_dropShadow_26_136"/>
<feBlend mode="normal" in="SourceGraphic" in2="effect1_dropShadow_26_136" result="shape"/>
</filter>
</defs>
</svg>
